<mxfile host="app.diagrams.net" agent="Mozilla/5.0 (Windows NT 10.0; Win64; x64) AppleWebKit/537.36 (KHTML, like Gecko) Chrome/135.0.0.0 Safari/537.36" version="26.2.2">
  <diagram name="Page-1" id="R6vBpZMgFeXKHMAX53NC">
    <mxGraphModel dx="3128" dy="749" grid="1" gridSize="20" guides="1" tooltips="1" connect="1" arrows="1" fold="1" page="1" pageScale="1" pageWidth="850" pageHeight="1100" math="0" shadow="0">
      <root>
        <mxCell id="0" />
        <mxCell id="1" parent="0" />
        <mxCell id="rHQkCnQgeeUwdgtuKdrH-36" value="" style="edgeStyle=orthogonalEdgeStyle;rounded=0;orthogonalLoop=1;jettySize=auto;html=1;" parent="1" source="rHQkCnQgeeUwdgtuKdrH-1" target="rHQkCnQgeeUwdgtuKdrH-35" edge="1">
          <mxGeometry relative="1" as="geometry" />
        </mxCell>
        <mxCell id="rHQkCnQgeeUwdgtuKdrH-1" value="&lt;font style=&quot;font-size: 36px;&quot;&gt;user&lt;/font&gt;" style="rounded=0;whiteSpace=wrap;html=1;" parent="1" vertex="1">
          <mxGeometry x="70" y="270" width="120" height="60" as="geometry" />
        </mxCell>
        <mxCell id="rHQkCnQgeeUwdgtuKdrH-2" value="&lt;u&gt;User_Id&lt;/u&gt;" style="ellipse;whiteSpace=wrap;html=1;" parent="1" vertex="1">
          <mxGeometry x="40" y="140" width="60" height="30" as="geometry" />
        </mxCell>
        <mxCell id="rHQkCnQgeeUwdgtuKdrH-3" value="" style="endArrow=none;html=1;rounded=0;exitX=0.5;exitY=1;exitDx=0;exitDy=0;entryX=0.083;entryY=0;entryDx=0;entryDy=0;entryPerimeter=0;" parent="1" source="rHQkCnQgeeUwdgtuKdrH-2" target="rHQkCnQgeeUwdgtuKdrH-1" edge="1">
          <mxGeometry width="50" height="50" relative="1" as="geometry">
            <mxPoint x="330" y="410" as="sourcePoint" />
            <mxPoint x="380" y="360" as="targetPoint" />
          </mxGeometry>
        </mxCell>
        <mxCell id="rHQkCnQgeeUwdgtuKdrH-4" value="Fname" style="ellipse;whiteSpace=wrap;html=1;" parent="1" vertex="1">
          <mxGeometry x="120" y="135" width="60" height="40" as="geometry" />
        </mxCell>
        <mxCell id="rHQkCnQgeeUwdgtuKdrH-5" value="Lname" style="ellipse;whiteSpace=wrap;html=1;" parent="1" vertex="1">
          <mxGeometry x="210" y="135" width="60" height="40" as="geometry" />
        </mxCell>
        <mxCell id="rHQkCnQgeeUwdgtuKdrH-6" value="pass" style="ellipse;whiteSpace=wrap;html=1;" parent="1" vertex="1">
          <mxGeometry x="270" y="190" width="70" height="40" as="geometry" />
        </mxCell>
        <mxCell id="rHQkCnQgeeUwdgtuKdrH-7" value="email" style="ellipse;whiteSpace=wrap;html=1;" parent="1" vertex="1">
          <mxGeometry x="280" y="150" width="70" height="40" as="geometry" />
        </mxCell>
        <mxCell id="rHQkCnQgeeUwdgtuKdrH-8" value="number" style="ellipse;whiteSpace=wrap;html=1;" parent="1" vertex="1">
          <mxGeometry y="180" width="70" height="40" as="geometry" />
        </mxCell>
        <mxCell id="rHQkCnQgeeUwdgtuKdrH-9" value="" style="endArrow=none;html=1;rounded=0;entryX=0.5;entryY=1;entryDx=0;entryDy=0;" parent="1" target="rHQkCnQgeeUwdgtuKdrH-4" edge="1">
          <mxGeometry width="50" height="50" relative="1" as="geometry">
            <mxPoint x="80" y="270" as="sourcePoint" />
            <mxPoint x="380" y="320" as="targetPoint" />
          </mxGeometry>
        </mxCell>
        <mxCell id="rHQkCnQgeeUwdgtuKdrH-11" value="" style="endArrow=none;html=1;rounded=0;entryX=0.25;entryY=0.917;entryDx=0;entryDy=0;entryPerimeter=0;" parent="1" target="rHQkCnQgeeUwdgtuKdrH-5" edge="1">
          <mxGeometry width="50" height="50" relative="1" as="geometry">
            <mxPoint x="90" y="267" as="sourcePoint" />
            <mxPoint x="400" y="340" as="targetPoint" />
          </mxGeometry>
        </mxCell>
        <mxCell id="rHQkCnQgeeUwdgtuKdrH-12" value="" style="endArrow=none;html=1;rounded=0;entryX=0;entryY=1;entryDx=0;entryDy=0;" parent="1" target="rHQkCnQgeeUwdgtuKdrH-6" edge="1">
          <mxGeometry width="50" height="50" relative="1" as="geometry">
            <mxPoint x="90" y="270" as="sourcePoint" />
            <mxPoint x="410" y="350" as="targetPoint" />
          </mxGeometry>
        </mxCell>
        <mxCell id="rHQkCnQgeeUwdgtuKdrH-13" value="" style="endArrow=none;html=1;rounded=0;" parent="1" target="rHQkCnQgeeUwdgtuKdrH-7" edge="1">
          <mxGeometry width="50" height="50" relative="1" as="geometry">
            <mxPoint x="80" y="270" as="sourcePoint" />
            <mxPoint x="420" y="360" as="targetPoint" />
            <Array as="points" />
          </mxGeometry>
        </mxCell>
        <mxCell id="rHQkCnQgeeUwdgtuKdrH-15" value="" style="endArrow=none;html=1;rounded=0;entryX=0.5;entryY=1;entryDx=0;entryDy=0;exitX=0.104;exitY=0;exitDx=0;exitDy=0;exitPerimeter=0;" parent="1" source="rHQkCnQgeeUwdgtuKdrH-1" target="rHQkCnQgeeUwdgtuKdrH-8" edge="1">
          <mxGeometry width="50" height="50" relative="1" as="geometry">
            <mxPoint x="330" y="370" as="sourcePoint" />
            <mxPoint x="380" y="320" as="targetPoint" />
          </mxGeometry>
        </mxCell>
        <mxCell id="rHQkCnQgeeUwdgtuKdrH-16" value="&lt;u&gt;username&lt;/u&gt;" style="ellipse;whiteSpace=wrap;html=1;" parent="1" vertex="1">
          <mxGeometry x="-50" y="220" width="60" height="30" as="geometry" />
        </mxCell>
        <mxCell id="rHQkCnQgeeUwdgtuKdrH-17" value="" style="endArrow=none;html=1;rounded=0;entryX=0.681;entryY=0.889;entryDx=0;entryDy=0;entryPerimeter=0;exitX=0.056;exitY=0.028;exitDx=0;exitDy=0;exitPerimeter=0;" parent="1" source="rHQkCnQgeeUwdgtuKdrH-1" target="rHQkCnQgeeUwdgtuKdrH-16" edge="1">
          <mxGeometry width="50" height="50" relative="1" as="geometry">
            <mxPoint x="330" y="370" as="sourcePoint" />
            <mxPoint x="380" y="320" as="targetPoint" />
          </mxGeometry>
        </mxCell>
        <mxCell id="rHQkCnQgeeUwdgtuKdrH-18" value="enable" style="ellipse;whiteSpace=wrap;html=1;" parent="1" vertex="1">
          <mxGeometry x="-100" y="260" width="60" height="50" as="geometry" />
        </mxCell>
        <mxCell id="rHQkCnQgeeUwdgtuKdrH-19" value="" style="endArrow=none;html=1;rounded=0;entryX=1;entryY=1;entryDx=0;entryDy=0;exitX=0.083;exitY=0;exitDx=0;exitDy=0;exitPerimeter=0;" parent="1" source="rHQkCnQgeeUwdgtuKdrH-1" target="rHQkCnQgeeUwdgtuKdrH-18" edge="1">
          <mxGeometry width="50" height="50" relative="1" as="geometry">
            <mxPoint x="330" y="370" as="sourcePoint" />
            <mxPoint x="380" y="320" as="targetPoint" />
          </mxGeometry>
        </mxCell>
        <mxCell id="rHQkCnQgeeUwdgtuKdrH-20" value="about" style="ellipse;whiteSpace=wrap;html=1;" parent="1" vertex="1">
          <mxGeometry x="-100" y="320" width="60" height="50" as="geometry" />
        </mxCell>
        <mxCell id="rHQkCnQgeeUwdgtuKdrH-21" value="" style="endArrow=none;html=1;rounded=0;exitX=1;exitY=0;exitDx=0;exitDy=0;" parent="1" source="rHQkCnQgeeUwdgtuKdrH-20" edge="1">
          <mxGeometry width="50" height="50" relative="1" as="geometry">
            <mxPoint x="330" y="370" as="sourcePoint" />
            <mxPoint x="80" y="270" as="targetPoint" />
          </mxGeometry>
        </mxCell>
        <mxCell id="rHQkCnQgeeUwdgtuKdrH-38" style="edgeStyle=orthogonalEdgeStyle;rounded=0;orthogonalLoop=1;jettySize=auto;html=1;entryX=1;entryY=0.5;entryDx=0;entryDy=0;" parent="1" source="rHQkCnQgeeUwdgtuKdrH-40" target="rHQkCnQgeeUwdgtuKdrH-27" edge="1">
          <mxGeometry relative="1" as="geometry">
            <Array as="points">
              <mxPoint x="503" y="410" />
              <mxPoint x="503" y="470" />
            </Array>
          </mxGeometry>
        </mxCell>
        <mxCell id="rHQkCnQgeeUwdgtuKdrH-22" value="&lt;font style=&quot;font-size: 24px;&quot;&gt;Role&lt;/font&gt;" style="rounded=0;whiteSpace=wrap;html=1;" parent="1" vertex="1">
          <mxGeometry x="580" y="255" width="120" height="60" as="geometry" />
        </mxCell>
        <mxCell id="rHQkCnQgeeUwdgtuKdrH-23" value="&lt;u&gt;rollID&lt;/u&gt;" style="ellipse;whiteSpace=wrap;html=1;" parent="1" vertex="1">
          <mxGeometry x="740" y="160" width="70" height="40" as="geometry" />
        </mxCell>
        <mxCell id="rHQkCnQgeeUwdgtuKdrH-24" value="" style="endArrow=none;html=1;rounded=0;entryX=0.06;entryY=0.708;entryDx=0;entryDy=0;entryPerimeter=0;exitX=0.611;exitY=0.042;exitDx=0;exitDy=0;exitPerimeter=0;" parent="1" source="rHQkCnQgeeUwdgtuKdrH-22" target="rHQkCnQgeeUwdgtuKdrH-23" edge="1">
          <mxGeometry width="50" height="50" relative="1" as="geometry">
            <mxPoint x="330" y="370" as="sourcePoint" />
            <mxPoint x="380" y="320" as="targetPoint" />
          </mxGeometry>
        </mxCell>
        <mxCell id="rHQkCnQgeeUwdgtuKdrH-25" value="role" style="ellipse;whiteSpace=wrap;html=1;" parent="1" vertex="1">
          <mxGeometry x="657" y="140" width="70" height="40" as="geometry" />
        </mxCell>
        <mxCell id="rHQkCnQgeeUwdgtuKdrH-26" value="" style="endArrow=none;html=1;rounded=0;entryX=0.06;entryY=0.708;entryDx=0;entryDy=0;entryPerimeter=0;" parent="1" target="rHQkCnQgeeUwdgtuKdrH-25" edge="1">
          <mxGeometry width="50" height="50" relative="1" as="geometry">
            <mxPoint x="660" y="250" as="sourcePoint" />
            <mxPoint x="297" y="300" as="targetPoint" />
          </mxGeometry>
        </mxCell>
        <mxCell id="rHQkCnQgeeUwdgtuKdrH-27" value="&lt;font style=&quot;font-size: 19px;&quot;&gt;User_Role&lt;/font&gt;" style="rounded=0;whiteSpace=wrap;html=1;" parent="1" vertex="1">
          <mxGeometry x="305" y="440" width="120" height="60" as="geometry" />
        </mxCell>
        <mxCell id="rHQkCnQgeeUwdgtuKdrH-28" value="&lt;u&gt;rollID&lt;/u&gt;" style="ellipse;whiteSpace=wrap;html=1;" parent="1" vertex="1">
          <mxGeometry x="447" y="342" width="70" height="40" as="geometry" />
        </mxCell>
        <mxCell id="rHQkCnQgeeUwdgtuKdrH-29" value="" style="endArrow=none;html=1;rounded=0;entryX=0.06;entryY=0.708;entryDx=0;entryDy=0;entryPerimeter=0;exitX=0.611;exitY=0.042;exitDx=0;exitDy=0;exitPerimeter=0;" parent="1" target="rHQkCnQgeeUwdgtuKdrH-28" edge="1">
          <mxGeometry width="50" height="50" relative="1" as="geometry">
            <mxPoint x="360" y="440" as="sourcePoint" />
            <mxPoint x="87" y="502" as="targetPoint" />
          </mxGeometry>
        </mxCell>
        <mxCell id="rHQkCnQgeeUwdgtuKdrH-31" value="&lt;u&gt;userRoll_id&lt;/u&gt;" style="ellipse;whiteSpace=wrap;html=1;" parent="1" vertex="1">
          <mxGeometry x="357" y="315" width="70" height="40" as="geometry" />
        </mxCell>
        <mxCell id="rHQkCnQgeeUwdgtuKdrH-32" value="" style="endArrow=none;html=1;rounded=0;entryX=0.06;entryY=0.708;entryDx=0;entryDy=0;entryPerimeter=0;" parent="1" target="rHQkCnQgeeUwdgtuKdrH-31" edge="1">
          <mxGeometry width="50" height="50" relative="1" as="geometry">
            <mxPoint x="361" y="430" as="sourcePoint" />
            <mxPoint x="-3" y="475" as="targetPoint" />
          </mxGeometry>
        </mxCell>
        <mxCell id="rHQkCnQgeeUwdgtuKdrH-33" value="&lt;u&gt;User_Id&lt;/u&gt;" style="ellipse;whiteSpace=wrap;html=1;" parent="1" vertex="1">
          <mxGeometry x="305" y="310" width="60" height="30" as="geometry" />
        </mxCell>
        <mxCell id="rHQkCnQgeeUwdgtuKdrH-34" value="" style="endArrow=none;html=1;rounded=0;exitX=0.5;exitY=1;exitDx=0;exitDy=0;entryX=0.083;entryY=0;entryDx=0;entryDy=0;entryPerimeter=0;" parent="1" source="rHQkCnQgeeUwdgtuKdrH-33" edge="1">
          <mxGeometry width="50" height="50" relative="1" as="geometry">
            <mxPoint x="595" y="580" as="sourcePoint" />
            <mxPoint x="345" y="440" as="targetPoint" />
          </mxGeometry>
        </mxCell>
        <mxCell id="rHQkCnQgeeUwdgtuKdrH-37" style="edgeStyle=orthogonalEdgeStyle;rounded=0;orthogonalLoop=1;jettySize=auto;html=1;entryX=0;entryY=0.5;entryDx=0;entryDy=0;" parent="1" source="rHQkCnQgeeUwdgtuKdrH-35" target="rHQkCnQgeeUwdgtuKdrH-27" edge="1">
          <mxGeometry relative="1" as="geometry" />
        </mxCell>
        <mxCell id="rHQkCnQgeeUwdgtuKdrH-35" value="has" style="rhombus;whiteSpace=wrap;html=1;" parent="1" vertex="1">
          <mxGeometry x="80" y="410" width="80" height="80" as="geometry" />
        </mxCell>
        <mxCell id="rHQkCnQgeeUwdgtuKdrH-39" value="" style="edgeStyle=orthogonalEdgeStyle;rounded=0;orthogonalLoop=1;jettySize=auto;html=1;entryX=1;entryY=0.5;entryDx=0;entryDy=0;" parent="1" source="rHQkCnQgeeUwdgtuKdrH-22" target="rHQkCnQgeeUwdgtuKdrH-40" edge="1">
          <mxGeometry relative="1" as="geometry">
            <mxPoint x="640" y="315" as="sourcePoint" />
            <mxPoint x="425" y="470" as="targetPoint" />
            <Array as="points">
              <mxPoint x="640" y="410" />
            </Array>
          </mxGeometry>
        </mxCell>
        <mxCell id="rHQkCnQgeeUwdgtuKdrH-40" value="has" style="rhombus;whiteSpace=wrap;html=1;" parent="1" vertex="1">
          <mxGeometry x="520" y="370" width="80" height="80" as="geometry" />
        </mxCell>
        <mxCell id="rHQkCnQgeeUwdgtuKdrH-41" value="1" style="text;html=1;align=center;verticalAlign=middle;resizable=0;points=[];autosize=1;strokeColor=none;fillColor=none;" parent="1" vertex="1">
          <mxGeometry x="135" y="348" width="30" height="30" as="geometry" />
        </mxCell>
        <mxCell id="rHQkCnQgeeUwdgtuKdrH-42" value="n" style="text;html=1;align=center;verticalAlign=middle;resizable=0;points=[];autosize=1;strokeColor=none;fillColor=none;" parent="1" vertex="1">
          <mxGeometry x="245" y="438" width="30" height="30" as="geometry" />
        </mxCell>
        <mxCell id="rHQkCnQgeeUwdgtuKdrH-43" value="1" style="text;html=1;align=center;verticalAlign=middle;resizable=0;points=[];autosize=1;strokeColor=none;fillColor=none;" parent="1" vertex="1">
          <mxGeometry x="615" y="318" width="30" height="30" as="geometry" />
        </mxCell>
        <mxCell id="rHQkCnQgeeUwdgtuKdrH-44" value="n" style="text;html=1;align=center;verticalAlign=middle;resizable=0;points=[];autosize=1;strokeColor=none;fillColor=none;" parent="1" vertex="1">
          <mxGeometry x="425" y="468" width="30" height="30" as="geometry" />
        </mxCell>
        <mxCell id="YLv3QDMawcllip28iQnX-24" value="1" style="edgeStyle=orthogonalEdgeStyle;rounded=0;orthogonalLoop=1;jettySize=auto;html=1;exitX=0.5;exitY=1;exitDx=0;exitDy=0;" edge="1" parent="1" source="YLv3QDMawcllip28iQnX-1" target="YLv3QDMawcllip28iQnX-22">
          <mxGeometry relative="1" as="geometry" />
        </mxCell>
        <mxCell id="YLv3QDMawcllip28iQnX-1" value="&lt;font style=&quot;font-size: 20px;&quot;&gt;categaries&lt;/font&gt;&lt;div&gt;&lt;br&gt;&lt;/div&gt;" style="rounded=0;whiteSpace=wrap;html=1;" vertex="1" parent="1">
          <mxGeometry x="-80" y="655" width="120" height="60" as="geometry" />
        </mxCell>
        <mxCell id="YLv3QDMawcllip28iQnX-2" value="&lt;u&gt;&lt;font style=&quot;font-size: 14px;&quot;&gt;Cid&lt;/font&gt;&lt;/u&gt;" style="ellipse;whiteSpace=wrap;html=1;" vertex="1" parent="1">
          <mxGeometry x="-180" y="550" width="100" height="60" as="geometry" />
        </mxCell>
        <mxCell id="YLv3QDMawcllip28iQnX-3" value="" style="endArrow=none;html=1;rounded=0;entryX=0.5;entryY=1;entryDx=0;entryDy=0;exitX=0;exitY=0;exitDx=0;exitDy=0;" edge="1" parent="1" source="YLv3QDMawcllip28iQnX-1" target="YLv3QDMawcllip28iQnX-2">
          <mxGeometry width="50" height="50" relative="1" as="geometry">
            <mxPoint x="220" y="610" as="sourcePoint" />
            <mxPoint x="270" y="560" as="targetPoint" />
          </mxGeometry>
        </mxCell>
        <mxCell id="YLv3QDMawcllip28iQnX-4" value="title" style="ellipse;whiteSpace=wrap;html=1;" vertex="1" parent="1">
          <mxGeometry x="-60" y="550" width="70" height="60" as="geometry" />
        </mxCell>
        <mxCell id="YLv3QDMawcllip28iQnX-5" value="description" style="ellipse;whiteSpace=wrap;html=1;" vertex="1" parent="1">
          <mxGeometry x="30" y="550" width="70" height="70" as="geometry" />
        </mxCell>
        <mxCell id="YLv3QDMawcllip28iQnX-23" value="n" style="edgeStyle=orthogonalEdgeStyle;rounded=0;orthogonalLoop=1;jettySize=auto;html=1;entryX=1;entryY=0.5;entryDx=0;entryDy=0;" edge="1" parent="1" source="YLv3QDMawcllip28iQnX-6" target="YLv3QDMawcllip28iQnX-22">
          <mxGeometry relative="1" as="geometry" />
        </mxCell>
        <mxCell id="YLv3QDMawcllip28iQnX-6" value="&lt;font style=&quot;font-size: 17px;&quot;&gt;Quiz&lt;/font&gt;" style="rounded=0;whiteSpace=wrap;html=1;" vertex="1" parent="1">
          <mxGeometry x="210" y="730" width="120" height="60" as="geometry" />
        </mxCell>
        <mxCell id="YLv3QDMawcllip28iQnX-7" value="" style="endArrow=none;html=1;rounded=0;entryX=0.5;entryY=1;entryDx=0;entryDy=0;exitX=0.417;exitY=-0.017;exitDx=0;exitDy=0;exitPerimeter=0;" edge="1" parent="1" source="YLv3QDMawcllip28iQnX-1" target="YLv3QDMawcllip28iQnX-4">
          <mxGeometry width="50" height="50" relative="1" as="geometry">
            <mxPoint x="220" y="600" as="sourcePoint" />
            <mxPoint x="270" y="550" as="targetPoint" />
            <Array as="points" />
          </mxGeometry>
        </mxCell>
        <mxCell id="YLv3QDMawcllip28iQnX-8" value="" style="endArrow=none;html=1;rounded=0;entryX=0;entryY=1;entryDx=0;entryDy=0;exitX=0.675;exitY=-0.017;exitDx=0;exitDy=0;exitPerimeter=0;" edge="1" parent="1" source="YLv3QDMawcllip28iQnX-1" target="YLv3QDMawcllip28iQnX-5">
          <mxGeometry width="50" height="50" relative="1" as="geometry">
            <mxPoint x="220" y="600" as="sourcePoint" />
            <mxPoint x="270" y="550" as="targetPoint" />
          </mxGeometry>
        </mxCell>
        <mxCell id="YLv3QDMawcllip28iQnX-9" value="&lt;u&gt;Qid&lt;/u&gt;" style="ellipse;whiteSpace=wrap;html=1;" vertex="1" parent="1">
          <mxGeometry x="180" y="600" width="80" height="50" as="geometry" />
        </mxCell>
        <mxCell id="YLv3QDMawcllip28iQnX-10" value="title" style="ellipse;whiteSpace=wrap;html=1;" vertex="1" parent="1">
          <mxGeometry x="297" y="590" width="60" height="50" as="geometry" />
        </mxCell>
        <mxCell id="YLv3QDMawcllip28iQnX-11" value="" style="endArrow=none;html=1;rounded=0;entryX=0.388;entryY=1.02;entryDx=0;entryDy=0;entryPerimeter=0;exitX=0;exitY=0;exitDx=0;exitDy=0;" edge="1" parent="1" source="YLv3QDMawcllip28iQnX-6" target="YLv3QDMawcllip28iQnX-9">
          <mxGeometry width="50" height="50" relative="1" as="geometry">
            <mxPoint x="220" y="600" as="sourcePoint" />
            <mxPoint x="270" y="550" as="targetPoint" />
          </mxGeometry>
        </mxCell>
        <mxCell id="YLv3QDMawcllip28iQnX-12" value="" style="endArrow=none;html=1;rounded=0;entryX=0;entryY=1;entryDx=0;entryDy=0;exitX=0.167;exitY=-0.033;exitDx=0;exitDy=0;exitPerimeter=0;" edge="1" parent="1" source="YLv3QDMawcllip28iQnX-6" target="YLv3QDMawcllip28iQnX-10">
          <mxGeometry width="50" height="50" relative="1" as="geometry">
            <mxPoint x="220" y="600" as="sourcePoint" />
            <mxPoint x="270" y="550" as="targetPoint" />
          </mxGeometry>
        </mxCell>
        <mxCell id="YLv3QDMawcllip28iQnX-13" value="discription" style="ellipse;whiteSpace=wrap;html=1;" vertex="1" parent="1">
          <mxGeometry x="390" y="585" width="70" height="65" as="geometry" />
        </mxCell>
        <mxCell id="YLv3QDMawcllip28iQnX-14" value="" style="endArrow=none;html=1;rounded=0;entryX=0;entryY=1;entryDx=0;entryDy=0;exitX=0.692;exitY=-0.05;exitDx=0;exitDy=0;exitPerimeter=0;" edge="1" parent="1" source="YLv3QDMawcllip28iQnX-6" target="YLv3QDMawcllip28iQnX-13">
          <mxGeometry width="50" height="50" relative="1" as="geometry">
            <mxPoint x="220" y="600" as="sourcePoint" />
            <mxPoint x="270" y="550" as="targetPoint" />
          </mxGeometry>
        </mxCell>
        <mxCell id="YLv3QDMawcllip28iQnX-15" value="max_marks" style="ellipse;whiteSpace=wrap;html=1;" vertex="1" parent="1">
          <mxGeometry x="397" y="690" width="120" height="80" as="geometry" />
        </mxCell>
        <mxCell id="YLv3QDMawcllip28iQnX-16" value="" style="endArrow=none;html=1;rounded=0;entryX=0;entryY=0.5;entryDx=0;entryDy=0;exitX=1;exitY=0;exitDx=0;exitDy=0;" edge="1" parent="1" source="YLv3QDMawcllip28iQnX-6" target="YLv3QDMawcllip28iQnX-15">
          <mxGeometry width="50" height="50" relative="1" as="geometry">
            <mxPoint x="220" y="600" as="sourcePoint" />
            <mxPoint x="270" y="550" as="targetPoint" />
          </mxGeometry>
        </mxCell>
        <mxCell id="YLv3QDMawcllip28iQnX-17" value="numberofQuestions" style="ellipse;whiteSpace=wrap;html=1;" vertex="1" parent="1">
          <mxGeometry x="390" y="800" width="120" height="80" as="geometry" />
        </mxCell>
        <mxCell id="YLv3QDMawcllip28iQnX-19" value="" style="endArrow=none;html=1;rounded=0;entryX=0;entryY=0.5;entryDx=0;entryDy=0;exitX=0.892;exitY=0.967;exitDx=0;exitDy=0;exitPerimeter=0;" edge="1" parent="1" source="YLv3QDMawcllip28iQnX-6" target="YLv3QDMawcllip28iQnX-17">
          <mxGeometry width="50" height="50" relative="1" as="geometry">
            <mxPoint x="220" y="600" as="sourcePoint" />
            <mxPoint x="270" y="550" as="targetPoint" />
          </mxGeometry>
        </mxCell>
        <mxCell id="YLv3QDMawcllip28iQnX-20" value="active" style="ellipse;whiteSpace=wrap;html=1;" vertex="1" parent="1">
          <mxGeometry x="200" y="850" width="80" height="50" as="geometry" />
        </mxCell>
        <mxCell id="YLv3QDMawcllip28iQnX-21" value="" style="endArrow=none;html=1;rounded=0;entryX=0;entryY=1;entryDx=0;entryDy=0;exitX=0.7;exitY=-0.04;exitDx=0;exitDy=0;exitPerimeter=0;" edge="1" parent="1" source="YLv3QDMawcllip28iQnX-20" target="YLv3QDMawcllip28iQnX-6">
          <mxGeometry width="50" height="50" relative="1" as="geometry">
            <mxPoint x="220" y="600" as="sourcePoint" />
            <mxPoint x="270" y="550" as="targetPoint" />
          </mxGeometry>
        </mxCell>
        <mxCell id="YLv3QDMawcllip28iQnX-22" value="has" style="rhombus;whiteSpace=wrap;html=1;" vertex="1" parent="1">
          <mxGeometry x="-30" y="820" width="70" height="80" as="geometry" />
        </mxCell>
        <mxCell id="YLv3QDMawcllip28iQnX-25" value="&lt;u&gt;&lt;font style=&quot;font-size: 14px;&quot;&gt;Cid&lt;/font&gt;&lt;/u&gt;" style="ellipse;whiteSpace=wrap;html=1;" vertex="1" parent="1">
          <mxGeometry x="60" y="660" width="70" height="50" as="geometry" />
        </mxCell>
        <mxCell id="YLv3QDMawcllip28iQnX-26" style="edgeStyle=orthogonalEdgeStyle;rounded=0;orthogonalLoop=1;jettySize=auto;html=1;entryX=0;entryY=0.117;entryDx=0;entryDy=0;entryPerimeter=0;" edge="1" parent="1" source="YLv3QDMawcllip28iQnX-25" target="YLv3QDMawcllip28iQnX-6">
          <mxGeometry relative="1" as="geometry" />
        </mxCell>
        <mxCell id="YLv3QDMawcllip28iQnX-27" value="Question" style="rounded=0;whiteSpace=wrap;html=1;" vertex="1" parent="1">
          <mxGeometry x="-700" y="660" width="120" height="60" as="geometry" />
        </mxCell>
        <mxCell id="YLv3QDMawcllip28iQnX-29" style="edgeStyle=orthogonalEdgeStyle;rounded=0;orthogonalLoop=1;jettySize=auto;html=1;exitX=1;exitY=1;exitDx=0;exitDy=0;entryX=0;entryY=0;entryDx=0;entryDy=0;" edge="1" parent="1" source="YLv3QDMawcllip28iQnX-28" target="YLv3QDMawcllip28iQnX-27">
          <mxGeometry relative="1" as="geometry" />
        </mxCell>
        <mxCell id="YLv3QDMawcllip28iQnX-28" value="&lt;u&gt;qid&lt;/u&gt;" style="ellipse;whiteSpace=wrap;html=1;" vertex="1" parent="1">
          <mxGeometry x="-800" y="490" width="80" height="70" as="geometry" />
        </mxCell>
        <mxCell id="YLv3QDMawcllip28iQnX-32" style="edgeStyle=orthogonalEdgeStyle;rounded=0;orthogonalLoop=1;jettySize=auto;html=1;entryX=0.25;entryY=0;entryDx=0;entryDy=0;" edge="1" parent="1" source="YLv3QDMawcllip28iQnX-30" target="YLv3QDMawcllip28iQnX-27">
          <mxGeometry relative="1" as="geometry" />
        </mxCell>
        <mxCell id="YLv3QDMawcllip28iQnX-30" value="Content" style="ellipse;whiteSpace=wrap;html=1;" vertex="1" parent="1">
          <mxGeometry x="-720" y="468" width="80" height="70" as="geometry" />
        </mxCell>
        <mxCell id="YLv3QDMawcllip28iQnX-31" value="image" style="ellipse;whiteSpace=wrap;html=1;" vertex="1" parent="1">
          <mxGeometry x="-560" y="480" width="80" height="60" as="geometry" />
        </mxCell>
        <mxCell id="YLv3QDMawcllip28iQnX-33" style="edgeStyle=orthogonalEdgeStyle;rounded=0;orthogonalLoop=1;jettySize=auto;html=1;entryX=0.658;entryY=0.033;entryDx=0;entryDy=0;entryPerimeter=0;exitX=0;exitY=1;exitDx=0;exitDy=0;" edge="1" parent="1" source="YLv3QDMawcllip28iQnX-31" target="YLv3QDMawcllip28iQnX-27">
          <mxGeometry relative="1" as="geometry" />
        </mxCell>
        <mxCell id="YLv3QDMawcllip28iQnX-39" style="edgeStyle=orthogonalEdgeStyle;rounded=0;orthogonalLoop=1;jettySize=auto;html=1;entryX=1;entryY=0.25;entryDx=0;entryDy=0;" edge="1" parent="1" source="YLv3QDMawcllip28iQnX-35" target="YLv3QDMawcllip28iQnX-27">
          <mxGeometry relative="1" as="geometry" />
        </mxCell>
        <mxCell id="YLv3QDMawcllip28iQnX-35" value="option1" style="ellipse;whiteSpace=wrap;html=1;" vertex="1" parent="1">
          <mxGeometry x="-510" y="540" width="85" height="60" as="geometry" />
        </mxCell>
        <mxCell id="YLv3QDMawcllip28iQnX-40" style="edgeStyle=orthogonalEdgeStyle;rounded=0;orthogonalLoop=1;jettySize=auto;html=1;" edge="1" parent="1" source="YLv3QDMawcllip28iQnX-36">
          <mxGeometry relative="1" as="geometry">
            <mxPoint x="-580" y="680" as="targetPoint" />
          </mxGeometry>
        </mxCell>
        <mxCell id="YLv3QDMawcllip28iQnX-36" value="option1" style="ellipse;whiteSpace=wrap;html=1;" vertex="1" parent="1">
          <mxGeometry x="-480" y="600" width="85" height="60" as="geometry" />
        </mxCell>
        <mxCell id="YLv3QDMawcllip28iQnX-41" style="edgeStyle=orthogonalEdgeStyle;rounded=0;orthogonalLoop=1;jettySize=auto;html=1;exitX=0;exitY=0.5;exitDx=0;exitDy=0;entryX=1;entryY=0.75;entryDx=0;entryDy=0;" edge="1" parent="1" source="YLv3QDMawcllip28iQnX-37" target="YLv3QDMawcllip28iQnX-27">
          <mxGeometry relative="1" as="geometry" />
        </mxCell>
        <mxCell id="YLv3QDMawcllip28iQnX-37" value="option1" style="ellipse;whiteSpace=wrap;html=1;" vertex="1" parent="1">
          <mxGeometry x="-510" y="660" width="85" height="60" as="geometry" />
        </mxCell>
        <mxCell id="YLv3QDMawcllip28iQnX-42" style="edgeStyle=orthogonalEdgeStyle;rounded=0;orthogonalLoop=1;jettySize=auto;html=1;exitX=0;exitY=0.5;exitDx=0;exitDy=0;" edge="1" parent="1" source="YLv3QDMawcllip28iQnX-38" target="YLv3QDMawcllip28iQnX-27">
          <mxGeometry relative="1" as="geometry" />
        </mxCell>
        <mxCell id="YLv3QDMawcllip28iQnX-38" value="option1" style="ellipse;whiteSpace=wrap;html=1;" vertex="1" parent="1">
          <mxGeometry x="-565" y="760" width="85" height="60" as="geometry" />
        </mxCell>
        <mxCell id="YLv3QDMawcllip28iQnX-44" style="edgeStyle=orthogonalEdgeStyle;rounded=0;orthogonalLoop=1;jettySize=auto;html=1;entryX=0;entryY=1;entryDx=0;entryDy=0;" edge="1" parent="1" source="YLv3QDMawcllip28iQnX-43" target="YLv3QDMawcllip28iQnX-27">
          <mxGeometry relative="1" as="geometry" />
        </mxCell>
        <mxCell id="YLv3QDMawcllip28iQnX-43" value="answer" style="ellipse;whiteSpace=wrap;html=1;" vertex="1" parent="1">
          <mxGeometry x="-840" y="750" width="100" height="70" as="geometry" />
        </mxCell>
        <mxCell id="YLv3QDMawcllip28iQnX-46" style="edgeStyle=orthogonalEdgeStyle;rounded=0;orthogonalLoop=1;jettySize=auto;html=1;exitX=1;exitY=0.5;exitDx=0;exitDy=0;entryX=0;entryY=0.75;entryDx=0;entryDy=0;" edge="1" parent="1" source="YLv3QDMawcllip28iQnX-45" target="YLv3QDMawcllip28iQnX-27">
          <mxGeometry relative="1" as="geometry" />
        </mxCell>
        <mxCell id="YLv3QDMawcllip28iQnX-45" value="&lt;u&gt;questionId&lt;/u&gt;" style="ellipse;whiteSpace=wrap;html=1;" vertex="1" parent="1">
          <mxGeometry x="-880" y="640" width="100" height="70" as="geometry" />
        </mxCell>
        <mxCell id="YLv3QDMawcllip28iQnX-48" value="n" style="edgeStyle=orthogonalEdgeStyle;rounded=0;orthogonalLoop=1;jettySize=auto;html=1;entryX=0.25;entryY=1;entryDx=0;entryDy=0;" edge="1" parent="1" source="YLv3QDMawcllip28iQnX-47" target="YLv3QDMawcllip28iQnX-27">
          <mxGeometry relative="1" as="geometry" />
        </mxCell>
        <mxCell id="YLv3QDMawcllip28iQnX-47" value="has" style="rhombus;whiteSpace=wrap;html=1;" vertex="1" parent="1">
          <mxGeometry x="-395" y="920" width="80" height="80" as="geometry" />
        </mxCell>
        <mxCell id="YLv3QDMawcllip28iQnX-49" value="1" style="edgeStyle=orthogonalEdgeStyle;rounded=0;orthogonalLoop=1;jettySize=auto;html=1;exitX=1;exitY=0.5;exitDx=0;exitDy=0;entryX=0.7;entryY=1;entryDx=0;entryDy=0;entryPerimeter=0;" edge="1" parent="1" source="YLv3QDMawcllip28iQnX-47" target="YLv3QDMawcllip28iQnX-6">
          <mxGeometry relative="1" as="geometry" />
        </mxCell>
      </root>
    </mxGraphModel>
  </diagram>
</mxfile>
